<?xml version="1.0" encoding="utf-8"?>
<!-- Generator: Adobe Illustrator 16.0.0, SVG Export Plug-In . SVG Version: 6.00 Build 0)  -->
<!DOCTYPE svg PUBLIC "-//W3C//DTD SVG 1.1//EN" "http://www.w3.org/Graphics/SVG/1.1/DTD/svg11.dtd">
<svg version="1.1" id="Layer_1" xmlns="http://www.w3.org/2000/svg" xmlns:xlink="http://www.w3.org/1999/xlink" x="0px" y="0px"
	 width="551.691px" height="273.664px" viewBox="0 0 551.691 273.664" enable-background="new 0 0 551.691 273.664"
	 xml:space="preserve">
<g>
	<path d="M534.516,165.744l-517.272,90.16l-0.068-147.986L164.83,82.182l8.378-33.678c0,0,1.005,0.84,4.306,0.188
		c2.683-0.621,3.635-1.91,3.635-1.91l16.868,29.616l336.429-58.64L534.516,165.744z"/>
	<g>
		<path fill="#FCD901" d="M11.844,269.664c-4.357,0-7.77-3.389-7.771-7.715L4,105.067c0.007-4.38,3.476-8.407,7.897-9.177
			l42.083-7.335c0.229-0.04,0.458-0.06,0.687-0.06c0.934,0,1.847,0.328,2.573,0.938c0.904,0.76,1.426,1.88,1.427,3.061l0.004,8.887
			c0.001,1.945-1.397,3.608-3.313,3.942l-34.182,5.958l0.064,139.867l509.271-88.767l-0.064-139.866L332.137,57.08
			c-0.229,0.041-0.458,0.061-0.687,0.061c-0.935,0-1.848-0.328-2.573-0.938c-0.904-0.759-1.426-1.88-1.427-3.06l-0.004-8.887
			c-0.001-1.945,1.397-3.609,3.313-3.943L538.354,4.129C538.856,4.043,539.355,4,539.847,4c4.354,0,7.77,3.387,7.772,7.711
			l0.071,156.885c-0.007,4.378-3.476,8.405-7.896,9.177L13.338,269.534C12.836,269.621,12.336,269.664,11.844,269.664z"/>
		<path d="M539.847,8c2.143,0,3.771,1.531,3.772,3.715v3.037l0.001,1.406l0.068,147.987v1.136l0.002,3.316
			c-0.004,2.45-2.054,4.793-4.584,5.234l-4.053,0.706v0.001L17.248,264.793l-0.868,0.151l-3.728,0.649
			c-0.275,0.048-0.545,0.07-0.808,0.07c-2.143,0-3.771-1.532-3.771-3.716l-0.002-3.308v-1.136L8.002,109.518l0-1.408L8,105.064
			c0.004-2.45,2.054-4.793,4.583-5.233l3.233-0.564l1.355-0.235l37.496-6.535l0.004,8.887l-37.496,6.535l0.068,147.987
			l517.271-90.16l0.001-0.001l-0.069-147.986L331.451,53.141l-0.004-8.887L534.443,8.871l2.737-0.478l1.859-0.323
			C539.315,8.023,539.584,8,539.847,8 M539.847,0c-0.719,0-1.447,0.063-2.165,0.187l-1.872,0.325l-2.741,0.478L330.073,36.372
			c-3.831,0.668-6.628,3.995-6.626,7.885l0.004,8.887c0.001,2.361,1.045,4.602,2.853,6.121c1.453,1.221,3.279,1.876,5.147,1.876
			c0.457,0,0.916-0.039,1.374-0.119l193.627-33.75l0.062,131.748L25.24,246.391l-0.061-131.747l30.867-5.38
			c3.832-0.668,6.628-3.995,6.626-7.885l-0.004-8.887c-0.001-2.361-1.045-4.602-2.853-6.121c-1.453-1.221-3.279-1.875-5.147-1.875
			c-0.457,0-0.917,0.039-1.374,0.119L15.798,91.15l-1.351,0.234l-3.24,0.565C4.83,93.061,0.01,98.693,0,105.052l0.002,3.063l0,1.406
			l0.068,147.988v1.132l0.002,3.313c0.001,6.564,5.171,11.71,11.771,11.71c0.718,0,1.447-0.063,2.165-0.187l3.744-0.651l0.87-0.152
			l517.806-90.254l4.054-0.707c6.38-1.112,11.199-6.746,11.209-13.103l-0.002-3.334v-1.131l-0.068-147.991l-0.001-1.408v-3.031
			C551.614,5.143,546.443,0,539.847,0L539.847,0z"/>
	</g>
	<g>
		<g>
			<g>
				<path fill="#FCD901" d="M52.776,105.711c-0.934,0-1.847-0.327-2.573-0.938c-0.904-0.76-1.426-1.88-1.427-3.061l-0.004-8.884
					c-0.001-1.944,1.396-3.608,3.313-3.942l2.803-0.489c-4.519-4.58-4.94-8.953-4.343-12.043c1.05-5.442,4.685-8.973,10.234-9.939
					l16.81-2.93c0.229-0.04,0.458-0.06,0.687-0.06c0.934,0,1.847,0.327,2.573,0.938c0.904,0.76,1.426,1.88,1.427,3.061l0.004,8.887
					c0.001,1.945-1.397,3.608-3.313,3.942l-3.496,0.609c3.054,3.105,4.553,6.552,4.468,10.29c-0.07,3.124-1.398,8.776-9.506,11.494
					c-0.191,0.064-0.386,0.114-0.584,0.148l-16.384,2.856C53.235,105.691,53.005,105.711,52.776,105.711z"/>
				<path d="M78.275,67.426l0.004,8.887l-7.51,1.309c-3.654,0.524-4.195,1.598-1.619,3.215c4.61,3.111,6.873,6.52,6.788,10.225
					c-0.083,3.707-2.343,6.307-6.779,7.794l-16.384,2.856l-0.004-8.884l6.485-1.132c4.024-0.592,4.535-1.769,1.535-3.533
					c-4.951-3.544-7.058-7.229-6.32-11.049c0.737-3.819,3.068-6.074,6.993-6.758L78.275,67.426 M78.275,59.426
					c-0.457,0-0.917,0.039-1.374,0.119l-16.81,2.93c-7.196,1.253-12.107,6.036-13.475,13.123c-0.561,2.9-0.483,6.633,1.65,10.617
					c-2.131,1.453-3.497,3.897-3.495,6.616l0.004,8.884c0.001,2.361,1.045,4.602,2.854,6.121c1.452,1.221,3.278,1.875,5.146,1.875
					c0.457,0,0.917-0.039,1.374-0.119l16.384-2.856c0.397-0.069,0.788-0.168,1.169-0.296c7.615-2.554,12.074-8.094,12.233-15.2
					c0.051-2.237-0.34-4.992-1.803-7.915c2.5-1.375,4.147-4.029,4.146-7.016l-0.004-8.887c-0.001-2.361-1.045-4.602-2.853-6.121
					C81.97,60.081,80.144,59.426,78.275,59.426L78.275,59.426z"/>
			</g>
			<g>
				<path fill="#FCD901" d="M86.544,99.825c-0.934,0-1.847-0.327-2.574-0.938c-0.904-0.76-1.426-1.88-1.426-3.061L82.537,79.63
					l-5.085,0.887c-0.229,0.04-0.458,0.06-0.687,0.06c-0.934,0-1.847-0.327-2.573-0.938c-0.904-0.76-1.426-1.88-1.427-3.061
					l-0.004-8.887c-0.001-1.945,1.397-3.608,3.313-3.942l29.565-5.154c0.229-0.04,0.458-0.06,0.687-0.06
					c0.934,0,1.847,0.327,2.574,0.938c0.904,0.76,1.426,1.88,1.426,3.061l0.003,8.888c0.001,1.945-1.397,3.608-3.313,3.942
					l-6.455,1.125l0.009,17.588c0.001,1.945-1.397,3.608-3.313,3.942l-10.026,1.747C87.002,99.806,86.773,99.825,86.544,99.825z"/>
				<path d="M106.326,62.535l0.003,8.888l-9.77,1.702l0.01,20.953l-10.026,1.747l-0.009-20.952l-9.77,1.703l-0.004-8.887
					L106.326,62.535 M106.326,54.535c-0.457,0-0.917,0.039-1.374,0.119l-29.565,5.154c-3.832,0.668-6.628,3.995-6.626,7.885
					l0.004,8.887c0.001,2.361,1.045,4.602,2.853,6.121c1.453,1.22,3.279,1.875,5.147,1.875c0.457,0,0.917-0.039,1.374-0.119
					l0.4-0.069l0.005,11.441c0.001,2.361,1.045,4.602,2.853,6.12c1.452,1.221,3.279,1.876,5.147,1.876
					c0.457,0,0.916-0.039,1.374-0.119l10.026-1.747c3.832-0.667,6.628-3.995,6.626-7.885l-0.007-14.223l3.139-0.548
					c3.832-0.667,6.628-3.994,6.627-7.884l-0.003-8.888c-0.001-2.361-1.045-4.603-2.853-6.121
					C110.021,55.19,108.194,54.535,106.326,54.535L106.326,54.535z"/>
			</g>
			<g>
				<path fill="#FCD901" d="M104.42,96.709c-1.145,0-2.249-0.492-3.015-1.372c-0.919-1.056-1.221-2.515-0.794-3.848l10.118-31.605
					c0.454-1.417,1.657-2.466,3.123-2.721l15.296-2.665c0.231-0.04,0.461-0.06,0.689-0.06c1.651,0,3.165,1.024,3.751,2.619
					L143.904,85.1c0.41,1.113,0.304,2.351-0.288,3.378c-0.592,1.028-1.61,1.739-2.779,1.943l-11.647,2.031
					c-0.23,0.04-0.461,0.06-0.689,0.06c-1.628,0-3.126-0.997-3.729-2.56l-0.761-1.971l-3.578,0.624l-1.175,3.463
					c-0.47,1.386-1.66,2.404-3.101,2.655l-11.05,1.926C104.878,96.689,104.648,96.709,104.42,96.709z"/>
				<path d="M129.834,58.438L140.15,86.48l-11.647,2.031l-1.944-5.035l-9.152,1.596l-1.938,5.711l-11.05,1.926l10.118-31.605
					L129.834,58.438 M117.811,78.968l8.49-1.479l-4.08-11.109L117.811,78.968 M129.839,50.438c-0.456,0-0.916,0.039-1.378,0.12
					l-15.296,2.665c-2.932,0.511-5.338,2.607-6.246,5.441L96.801,90.27c-0.854,2.666-0.251,5.585,1.588,7.695
					c1.533,1.76,3.741,2.744,6.031,2.744c0.457,0,0.916-0.039,1.374-0.119l11.05-1.926c2.625-0.457,4.832-2.186,5.916-4.583
					c1.488,1.534,3.556,2.432,5.74,2.432c0.456,0,0.917-0.039,1.379-0.12l11.647-2.031c2.337-0.407,4.373-1.831,5.557-3.887
					c1.185-2.055,1.396-4.53,0.577-6.756l-10.316-28.043C136.169,52.488,133.14,50.438,129.839,50.438L129.839,50.438z"/>
			</g>
			<g>
				<path fill="#FCD901" d="M139.724,90.557c-0.934,0-1.847-0.327-2.573-0.938c-0.904-0.76-1.426-1.88-1.427-3.061l-0.014-29.84
					c-0.001-1.945,1.397-3.608,3.313-3.942l20.052-3.494c0.115-0.021,0.23-0.035,0.347-0.045c0.643-0.055,1.274-0.083,1.876-0.083
					c2.392,0,4.513,0.438,6.304,1.303c2.454,1.187,4.271,3.057,5.405,5.559c0.113,0.249,0.2,0.509,0.26,0.775
					c0.74,3.303,0.732,6.001-0.024,8.251c-0.351,1.048-0.831,2.042-1.436,2.977l0.289-0.051c0.229-0.04,0.459-0.06,0.688-0.06
					c0.934,0,1.847,0.327,2.573,0.938c0.904,0.76,1.426,1.88,1.427,3.061l0.004,8.885c0.001,1.945-1.397,3.608-3.313,3.942
					l-12.158,2.119c-0.229,0.04-0.458,0.06-0.687,0.06c-0.929,0-1.838-0.324-2.563-0.929l-3.208-2.676l0,1.306
					c0.001,1.944-1.397,3.608-3.313,3.942l-11.136,1.941C140.183,90.537,139.953,90.557,139.724,90.557z"/>
				<path d="M161.298,53.154c1.793,0,3.315,0.302,4.565,0.905c1.593,0.771,2.76,1.973,3.5,3.606c0.57,2.545,0.599,4.58,0.088,6.102
					c-0.511,1.523-1.407,2.877-2.685,4.064c-1.28,1.187-3.114,2.266-5.503,3.232l2.305,2.451l9.216-1.607l0.004,8.885l-12.158,2.119
					l-9.774-8.154l0.005,9.857l-11.136,1.941l-0.014-29.84l20.052-3.494C160.294,53.178,160.806,53.154,161.298,53.154
					 M150.852,67.713l7.764-1.354c0.412-0.072,0.86-0.297,1.344-0.678c0.483-0.381,0.739-1.173,0.767-2.377
					c-0.071-1.132-0.36-1.835-0.865-2.113c-0.416-0.229-0.775-0.342-1.081-0.342c-0.065,0-0.128,0.005-0.189,0.016l-7.743,1.35
					L150.852,67.713 M161.298,45.154c-0.715,0-1.46,0.033-2.215,0.098c-0.233,0.02-0.464,0.05-0.694,0.09l-20.052,3.494
					c-3.832,0.667-6.628,3.995-6.626,7.885l0.014,29.84c0.001,2.361,1.045,4.602,2.853,6.121c1.453,1.22,3.279,1.875,5.147,1.875
					c0.457,0,0.917-0.039,1.374-0.119l11.136-1.941c1.83-0.318,3.423-1.244,4.589-2.548c1.168,0.632,2.477,0.964,3.807,0.964
					c0.457,0,0.917-0.039,1.374-0.119l12.158-2.119c3.832-0.668,6.628-3.995,6.626-7.885l-0.004-8.885
					c-0.001-2.361-1.045-4.602-2.854-6.121c-0.194-0.163-0.395-0.316-0.602-0.459c0.7-2.723,0.647-5.813-0.159-9.407
					c-0.119-0.534-0.293-1.055-0.519-1.553c-1.509-3.329-4.035-5.926-7.304-7.507C167.002,45.727,164.296,45.154,161.298,45.154
					L161.298,45.154z"/>
			</g>
			<g>
				<path fill="#FCD901" d="M198.17,80.369c-1.695,0-3.241-1.08-3.792-2.735l-9.399-28.203c-0.368-1.104-0.236-2.315,0.36-3.315
					c0.597-1,1.6-1.689,2.748-1.89l10.025-1.748c0.231-0.04,0.461-0.06,0.689-0.06c1.651,0,3.164,1.025,3.75,2.614l0.28-1.034
					c0.406-1.5,1.643-2.629,3.173-2.896l9.215-1.607c0.231-0.04,0.462-0.06,0.69-0.06c1.313,0,2.539,0.648,3.281,1.715
					c0.403-1.495,1.637-2.631,3.175-2.899l10.025-1.749c0.229-0.04,0.459-0.06,0.688-0.06c1.099,0,2.162,0.453,2.925,1.271
					c0.922,0.988,1.282,2.376,0.958,3.688l-7.708,31.185c-0.38,1.539-1.634,2.708-3.196,2.98l-10.025,1.748
					c-0.231,0.04-0.462,0.06-0.69,0.06c-1.315,0-2.54-0.65-3.281-1.715c-0.403,1.5-1.641,2.634-3.176,2.901l-10.025,1.748
					C198.628,80.35,198.397,80.369,198.17,80.369z"/>
				<path d="M233.078,40.442h0.005 M233.078,40.442l-7.708,31.185l-10.025,1.748l-3.91-11.966l-3.236,13.212l-10.025,1.748
					l-9.399-28.203l10.025-1.748l4.23,12.158l3.664-13.533l9.215-1.607l4.293,12.147l2.852-13.392L233.078,40.442 M233.078,32.442
					c-0.103,0-0.206,0.002-0.309,0.006c0,0-0.001,0-0.002,0l0,0c-0.414,0.016-0.82,0.063-1.216,0.14l-9.874,1.723
					c-1.268,0.221-2.433,0.737-3.42,1.478c-0.75-0.231-1.54-0.354-2.345-0.354c-0.456,0-0.917,0.039-1.38,0.12l-9.215,1.607
					c-1.414,0.246-2.702,0.861-3.76,1.746c-0.87-0.32-1.8-0.491-2.754-0.491c-0.456,0-0.917,0.039-1.379,0.12l-10.025,1.748
					c-2.295,0.399-4.301,1.78-5.495,3.78c-1.194,1.999-1.457,4.421-0.721,6.63l9.399,28.203c1.104,3.311,4.196,5.472,7.584,5.472
					c0.456,0,0.917-0.039,1.379-0.12l10.025-1.748c1.268-0.221,2.434-0.737,3.423-1.479c0.749,0.23,1.538,0.353,2.344,0.353
					c0.456,0,0.917-0.039,1.379-0.12l10.025-1.748c3.124-0.545,5.631-2.883,6.392-5.961l7.646-30.932
					c0.195-0.69,0.299-1.42,0.299-2.173c0-4.362-3.49-7.91-7.832-7.998C233.192,32.443,233.135,32.442,233.078,32.442
					L233.078,32.442z"/>
			</g>
			<g>
				<path fill="#FCD901" d="M228.462,75.09c-1.145,0-2.249-0.492-3.015-1.372c-0.919-1.056-1.221-2.515-0.794-3.848l10.12-31.606
					c0.454-1.417,1.657-2.466,3.123-2.721l15.294-2.665c0.23-0.04,0.461-0.06,0.689-0.06c1.651,0,3.165,1.024,3.751,2.619
					l10.317,28.043c0.41,1.113,0.304,2.351-0.289,3.378c-0.592,1.028-1.61,1.74-2.779,1.943l-11.646,2.029
					c-0.23,0.04-0.461,0.06-0.688,0.06c-1.628,0-3.126-0.997-3.729-2.56l-0.761-1.97l-3.578,0.623l-1.176,3.464
					c-0.47,1.385-1.659,2.403-3.1,2.654L229.15,75.03C228.92,75.07,228.69,75.09,228.462,75.09z"/>
				<path d="M253.876,36.818l10.317,28.043l-11.646,2.029l-1.944-5.034l-9.151,1.595l-1.939,5.711l-11.051,1.928l10.12-31.606
					L253.876,36.818 M241.854,57.348l8.489-1.48l-4.08-11.109L241.854,57.348 M253.881,28.817c-0.456,0-0.916,0.039-1.378,0.12
					l-15.295,2.665c-2.932,0.511-5.338,2.606-6.246,5.441l-10.12,31.606c-0.854,2.666-0.251,5.585,1.588,7.695
					c1.533,1.76,3.741,2.744,6.031,2.744c0.457,0,0.917-0.039,1.375-0.119l11.051-1.928c2.624-0.458,4.83-2.187,5.914-4.584
					c1.488,1.534,3.556,2.433,5.74,2.433c0.456,0,0.916-0.039,1.377-0.12l11.646-2.029c2.337-0.407,4.374-1.83,5.558-3.886
					s1.396-4.53,0.577-6.757l-10.317-28.043C260.211,30.868,257.183,28.817,253.881,28.817L253.881,28.817z"/>
			</g>
			<g>
				<path fill="#FCD901" d="M263.767,68.935c-0.934,0-1.847-0.327-2.574-0.938c-0.904-0.76-1.426-1.88-1.426-3.061l-0.014-29.839
					c-0.001-1.945,1.397-3.608,3.313-3.942l20.051-3.494c0.115-0.021,0.23-0.035,0.347-0.045c0.642-0.055,1.272-0.083,1.874-0.083
					c2.392,0,4.513,0.438,6.306,1.304c2.454,1.186,4.272,3.055,5.406,5.558c0.113,0.249,0.2,0.51,0.26,0.776
					c0.739,3.303,0.732,6.001-0.023,8.248c-0.353,1.05-0.833,2.044-1.437,2.979l0.291-0.051c0.229-0.04,0.458-0.06,0.687-0.06
					c0.934,0,1.847,0.327,2.574,0.938c0.904,0.76,1.426,1.88,1.426,3.061l0.004,8.885c0.001,1.945-1.397,3.608-3.313,3.942
					l-12.16,2.119c-0.229,0.04-0.458,0.06-0.687,0.06c-0.929,0-1.838-0.324-2.563-0.929l-3.208-2.676l0,1.306
					c0.001,1.944-1.397,3.608-3.313,3.942l-11.135,1.94C264.225,68.915,263.996,68.935,263.767,68.935z"/>
				<path d="M285.338,31.533c1.794,0,3.317,0.303,4.568,0.906c1.592,0.77,2.759,1.972,3.5,3.605c0.57,2.546,0.599,4.58,0.088,6.102
					c-0.512,1.523-1.407,2.877-2.686,4.064c-1.279,1.188-3.114,2.266-5.503,3.232l2.305,2.45l9.216-1.606l0.004,8.885l-12.16,2.119
					l-9.775-8.154l0.005,9.857l-11.135,1.94l-0.014-29.839l20.051-3.494C284.336,31.557,284.847,31.533,285.338,31.533
					 M274.894,46.092l7.764-1.353c0.413-0.072,0.861-0.298,1.343-0.679c0.483-0.381,0.739-1.172,0.768-2.377
					c-0.072-1.131-0.36-1.835-0.864-2.112c-0.417-0.229-0.778-0.343-1.084-0.343c-0.065,0-0.127,0.006-0.187,0.016l-7.743,1.35
					L274.894,46.092 M285.338,23.533c-0.715,0-1.459,0.033-2.214,0.098c-0.232,0.02-0.464,0.05-0.694,0.09l-20.051,3.494
					c-3.832,0.667-6.628,3.995-6.626,7.885l0.014,29.839c0.001,2.361,1.045,4.602,2.853,6.12c1.453,1.221,3.279,1.876,5.147,1.876
					c0.457,0,0.916-0.039,1.374-0.119l11.135-1.94c1.83-0.318,3.424-1.244,4.589-2.548c1.168,0.632,2.477,0.964,3.807,0.964
					c0.457,0,0.917-0.039,1.374-0.119l12.16-2.119c3.832-0.668,6.628-3.994,6.626-7.885l-0.004-8.885
					c-0.001-2.361-1.045-4.602-2.853-6.121c-0.195-0.163-0.396-0.316-0.604-0.46c0.7-2.724,0.646-5.813-0.158-9.404
					c-0.12-0.535-0.294-1.056-0.52-1.555c-1.509-3.33-4.035-5.926-7.306-7.507C291.042,24.105,288.336,23.533,285.338,23.533
					L285.338,23.533z"/>
			</g>
			<g>
				<path fill="#FCD901" d="M295.551,63.396c-0.934,0-1.847-0.327-2.573-0.938c-0.904-0.76-1.426-1.88-1.427-3.061l-0.005-8.884
					c-0.001-1.944,1.397-3.608,3.313-3.942l2.789-0.486c-3.703-3.722-5.157-7.76-4.328-12.048c1.048-5.441,4.682-8.972,10.233-9.938
					l16.809-2.93c0.229-0.04,0.458-0.06,0.687-0.06c0.934,0,1.847,0.327,2.574,0.938c0.904,0.76,1.426,1.88,1.426,3.061l0.004,8.887
					c0.001,1.945-1.397,3.608-3.313,3.942l-3.496,0.609c3.053,3.104,4.553,6.55,4.468,10.289c-0.07,3.125-1.398,8.775-9.505,11.497
					c-0.191,0.064-0.387,0.114-0.586,0.148l-16.383,2.855C296.01,63.376,295.78,63.396,295.551,63.396z"/>
				<path d="M321.049,25.109l0.004,8.887l-7.509,1.309c-3.654,0.525-4.195,1.599-1.619,3.217c4.61,3.109,6.872,6.518,6.788,10.223
					c-0.083,3.709-2.344,6.307-6.779,7.796l-16.383,2.855l-0.005-8.884l6.485-1.131c4.023-0.592,4.535-1.77,1.534-3.533
					c-4.951-3.546-7.058-7.229-6.318-11.051c0.735-3.818,3.067-6.074,6.992-6.758L321.049,25.109 M321.049,17.109
					c-0.457,0-0.917,0.039-1.374,0.119l-16.81,2.93c-7.198,1.253-12.109,6.038-13.474,13.126c-0.561,2.897-0.484,6.63,1.65,10.615
					c-2.131,1.453-3.497,3.897-3.496,6.616l0.005,8.885c0.001,2.36,1.046,4.601,2.854,6.12c1.452,1.22,3.278,1.875,5.146,1.875
					c0.457,0,0.917-0.039,1.374-0.119l16.383-2.855c0.398-0.069,0.79-0.168,1.173-0.297c7.614-2.557,12.072-8.097,12.231-15.201
					c0.051-2.239-0.341-4.993-1.803-7.915c2.499-1.375,4.146-4.029,4.145-7.016l-0.004-8.887c-0.001-2.361-1.045-4.602-2.853-6.12
					C324.744,17.765,322.917,17.109,321.049,17.109L321.049,17.109z"/>
			</g>
		</g>
		<g>
			<path fill="#FCD901" d="M78.28,76.311l-7.509,1.309c-3.655,0.526-4.195,1.6-1.62,3.217c4.609,3.109,6.872,6.518,6.788,10.225
				c-0.083,3.707-2.343,6.306-6.779,7.794l-16.384,2.856l-0.004-8.886l6.485-1.13c4.024-0.592,4.535-1.769,1.535-3.533
				c-4.952-3.546-7.058-7.229-6.32-11.049c0.737-3.821,3.068-6.074,6.993-6.758l16.81-2.93L78.28,76.311z"/>
			<path fill="#FCD901" d="M106.326,62.535l0.003,8.886l-9.77,1.704l0.01,20.953l-10.026,1.747l-0.01-20.954l-9.77,1.703
				l-0.004-8.885L106.326,62.535z"/>
			<path fill="#FCD901" d="M104.42,92.709l10.118-31.605l15.296-2.665L140.15,86.48l-11.647,2.031l-1.944-5.035l-9.152,1.596
				l-1.938,5.711L104.42,92.709z M122.221,66.379l-4.41,12.589l8.49-1.479L122.221,66.379z"/>
			<path fill="#FCD901" d="M139.724,86.557l-0.014-29.84l20.052-3.494c2.474-0.212,4.508,0.068,6.102,0.837s2.76,1.972,3.5,3.606
				c0.57,2.545,0.6,4.579,0.088,6.102c-0.51,1.521-1.407,2.877-2.686,4.063c-1.28,1.188-3.114,2.265-5.502,3.233l2.305,2.449
				l9.216-1.605l0.004,8.885l-12.158,2.119l-9.774-8.154l0.005,9.857L139.724,86.557z M150.849,62.215l0.003,5.496l7.764-1.352
				c0.412-0.072,0.86-0.299,1.344-0.679s0.739-1.173,0.767-2.376c-0.071-1.132-0.36-1.835-0.865-2.113
				c-0.505-0.277-0.928-0.386-1.27-0.326L150.849,62.215z"/>
			<path fill="#FCD901" d="M211.434,61.409l-3.236,13.212l-10.025,1.748l-9.399-28.203l10.025-1.748l4.23,12.158l3.664-13.533
				l9.215-1.607l4.293,12.147l2.852-13.392l10.025-1.749l-7.708,31.185l-10.025,1.748L211.434,61.409z"/>
			<path fill="#FCD901" d="M228.462,71.09l10.12-31.606l15.294-2.665l10.317,28.043l-11.646,2.029l-1.944-5.034l-9.151,1.595
				l-1.939,5.711L228.462,71.09z M246.264,44.758l-4.41,12.59l8.489-1.48L246.264,44.758z"/>
			<path fill="#FCD901" d="M263.767,64.935l-0.014-29.839l20.051-3.494c2.475-0.211,4.508,0.068,6.103,0.838
				c1.592,0.769,2.759,1.971,3.5,3.605c0.57,2.546,0.6,4.58,0.088,6.102c-0.512,1.522-1.407,2.877-2.686,4.064
				c-1.279,1.188-3.114,2.265-5.503,3.232l2.306,2.449l9.215-1.605l0.005,8.885l-12.16,2.119l-9.775-8.154l0.005,9.857
				L263.767,64.935z M274.891,40.594l0.003,5.498l7.764-1.354c0.413-0.072,0.86-0.298,1.343-0.678
				c0.483-0.381,0.739-1.174,0.768-2.377c-0.072-1.131-0.36-1.835-0.864-2.112c-0.505-0.276-0.929-0.386-1.271-0.327L274.891,40.594
				z"/>
			<path fill="#FCD901" d="M321.053,33.995l-7.508,1.308c-3.655,0.527-4.196,1.601-1.62,3.219c4.609,3.109,6.873,6.517,6.788,10.223
				c-0.083,3.707-2.343,6.307-6.779,7.796l-16.383,2.855l-0.005-8.886l6.485-1.131c4.023-0.59,4.535-1.769,1.534-3.531
				c-4.951-3.547-7.057-7.23-6.318-11.051c0.735-3.82,3.067-6.074,6.992-6.758l16.81-2.93L321.053,33.995z"/>
		</g>
	</g>
	<g>
		<path fill="#FFFFFF" d="M176.678,176.445l0.014,30.996l-63.919,12.943c-9.178,1.358-17.277,1.498-24.297,0.414
			c-7.021-1.084-13.013-3.486-17.976-7.211c-4.963-3.725-8.71-8.683-11.244-14.873c-2.533-6.191-3.802-13.563-3.805-22.118
			c-0.004-8.745,1.305-16.483,3.933-23.214c2.625-6.73,6.468-12.842,11.525-18.337c5.058-5.495,11.159-10.021,18.302-13.571
			c7.142-3.552,16.268-6.584,27.381-9.098c11.311-1.395,21.283-1.307,29.916,0.265c8.634,1.57,15.679,5.438,21.141,11.597
			c5.458,6.162,7.895,16.313,7.306,30.447c-1.187,6.551-3.529,12.485-7.024,17.806s-1.623,6.819,5.62,4.499L176.678,176.445z
			 M93.922,171.261c0.002,6.681,1.556,12.226,4.66,16.634c3.102,4.41,9.217,5.818,18.345,4.229l-0.002-5.119
			c13.693-1.04,21.059-4.091,22.098-9.149s1.708-9.995,2.003-14.804c-0.302-6.531-1.966-12.021-4.995-16.468
			c-3.028-4.446-9.405-5.82-19.127-4.128C101.576,145.128,93.915,154.729,93.922,171.261z"/>
		<path fill="#FFFFFF" d="M212.362,97.127l0.028,61.561c-0.294,7.068,1.096,11.702,4.173,13.904
			c3.077,2.205,7.89,2.832,14.439,1.881c5.258-1.012,9.646-3.266,13.169-6.764c3.52-3.497,5.18-8.642,4.979-15.43l-0.028-61.561
			l34.973-6.096l0.028,61.055c-0.145,8.677-1.618,15.844-4.417,21.496c-2.801,5.656-6.346,10.587-10.636,14.795
			c-4.289,4.207-9.67,7.838-16.143,10.889c-6.474,3.049-13.68,5.363-21.615,6.938c-6.599,1.006-13.309,1.299-20.13,0.877
			c-6.823-0.42-12.777-1.918-17.863-4.49c-5.086-2.575-9.007-6.336-11.763-11.287c-2.755-4.951-4.136-11.799-4.14-20.545
			l-0.027-61.129L212.362,97.127z"/>
		<path fill="#FFFFFF" d="M287.816,83.974l34.973-6.095l0.05,104.09l-34.975,6.096L287.816,83.974z"/>
		<path fill="#FFFFFF" d="M328.742,76.842l98.226-17.121l0.014,30.996l-51.995,51.163L427,132.814l0.016,30.996l-98.225,17.12
			l-0.016-30.996l51.996-51.164l-52.014,9.065L328.742,76.842z"/>
		<path fill="#FFFFFF" d="M441.998,57.101l40.853-7.12l-5.922,66.561l-28.947,5.047L441.998,57.101z M445.829,132.775l33.188-5.784
			l0.012,27.753l-33.187,5.785L445.829,132.775z"/>
	</g>
	<polygon points="323.781,37.715 344.586,34.089 344.597,58.648 323.792,62.274 	"/>
	<path fill="#FCD901" d="M57.645,100.864c2.53-0.441,4.579-2.784,4.584-5.234l-0.002-4.452L39.6,95.122l0.003,8.888L57.645,100.864z
		"/>
</g>
</svg>
