<?xml version="1.0" encoding="utf-8"?>
<!-- Generator: Adobe Illustrator 16.0.0, SVG Export Plug-In . SVG Version: 6.00 Build 0)  -->
<!DOCTYPE svg PUBLIC "-//W3C//DTD SVG 1.1//EN" "http://www.w3.org/Graphics/SVG/1.1/DTD/svg11.dtd">
<svg version="1.1" id="Layer_1" xmlns="http://www.w3.org/2000/svg" xmlns:xlink="http://www.w3.org/1999/xlink" x="0px" y="0px"
	 width="543.196px" height="217.878px" viewBox="0 0 543.196 217.878" enable-background="new 0 0 543.196 217.878"
	 xml:space="preserve">
<g>
	<path d="M526.167,187.024H17.029V36.661h145.332l8.262-32.732c0,0,0.988,1.031,4.238,0.953c2.641-0.156,3.578-1.297,3.578-1.297
		l16.588,33.076h331.138V187.024z"/>
	<g>
		<path fill="#FCD901" d="M12.505,200.055C7.811,200.044,4,196.225,4,191.541V32.137c0.01-4.693,3.83-8.505,8.514-8.505h41.422
			c2.209,0,4,1.791,4,4v9.029c0,2.209-1.791,4-4,4H21.029v142.364h501.137V40.661H326.362c-2.209,0-4-1.791-4-4v-9.029
			c0-2.209,1.791-4,4-4H530.69c4.694,0.011,8.506,3.83,8.506,8.514v159.402c-0.011,4.694-3.83,8.506-8.514,8.506l-3.987,0.001
			H12.505z"/>
		<path d="M530.69,27.632c2.488,0.006,4.506,2.023,4.506,4.514v3.086v1.43v150.363v1.154v3.369
			c-0.006,2.488-2.023,4.506-4.514,4.506h-3.987v0.001H17.029h-0.855h-3.669C10.017,196.049,8,194.03,8,191.541v-3.362v-1.153
			V36.661v-1.43v-3.095c0.005-2.488,2.024-4.505,4.514-4.505h3.182h1.334h36.906v9.029H17.029v150.364h509.137v-0.001V36.661
			H326.362v-9.029h199.805h2.695H530.69 M530.708,19.632c-0.006,0-0.013,0-0.019,0h-1.828h-2.695H326.362c-4.418,0-8,3.582-8,8
			v9.029c0,4.418,3.582,8,8,8h191.805v134.363l-493.137,0.001V44.661h28.906c4.418,0,8-3.582,8-8v-9.029c0-4.418-3.582-8-8-8H17.029
			h-1.334h-3.182C5.628,19.632,0.015,25.233,0,32.119v3.112v1.43v150.364v1.153v3.362c0,6.884,5.601,12.497,12.486,12.514h3.688
			h0.855h509.666l3.989-0.001c6.882,0,12.495-5.602,12.512-12.487v-3.388v-1.154V36.661v-1.43v-3.086
			C543.196,25.262,537.594,19.648,530.708,19.632L530.708,19.632z"/>
	</g>
	<g>
		<g>
			<g>
				<path fill="#FCD901" d="M52.07,40.659c-2.209,0-4-1.791-4-4v-9.027c0-2.209,1.791-4,4-4h1.741
					c-3.431-4.223-4.771-8.388-3.988-12.426c1.093-5.634,5.034-8.865,10.813-8.865h16.545c2.209,0,4,1.791,4,4v9.029
					c0,2.209-1.791,4-4,4h-2.438c2.822,3.504,4.207,7.074,4.127,10.66c-0.127,5.682-3.779,9.536-10.02,10.574
					c-0.217,0.036-0.437,0.055-0.656,0.055H52.07z"/>
				<path d="M77.182,6.341v9.029h-7.391c-0.184-0.006-0.36-0.009-0.528-0.009c-3.116,0-3.472,0.997-1.068,2.989
					c4.535,3.977,6.761,7.84,6.677,11.59c-0.084,3.752-2.31,5.992-6.677,6.719H52.07v-9.027h6.383
					c0.181,0.005,0.355,0.008,0.522,0.008c3.478,0,3.808-1.108,0.99-3.326c-4.871-4.479-6.943-8.594-6.215-12.346
					c0.728-3.75,3.023-5.627,6.887-5.627H77.182 M77.182-1.659H60.637c-7.644,0-13.292,4.638-14.74,12.104
					c-0.692,3.564-0.175,7.129,1.538,10.667c-2.036,1.45-3.364,3.83-3.364,6.521v9.027c0,4.418,3.582,8,8,8h16.125
					c0.44,0,0.879-0.036,1.313-0.108c8.195-1.363,13.19-6.759,13.362-14.432c0.06-2.662-0.488-5.283-1.636-7.85
					c2.362-1.391,3.947-3.96,3.947-6.899V6.341C85.182,1.923,81.6-1.659,77.182-1.659L77.182-1.659z"/>
			</g>
			<g>
				<path fill="#FCD901" d="M85.307,40.659c-2.209,0-4-1.791-4-4V19.37h-5.616c-2.209,0-4-1.791-4-4V6.341c0-2.209,1.791-4,4-4
					h29.101c2.209,0,4,1.791,4,4v9.029c0,2.209-1.791,4-4,4h-5.616v17.289c0,2.209-1.791,4-4,4H85.307z"/>
				<path d="M104.792,6.341v9.029h-9.616v21.289h-9.868V15.37h-9.616V6.341H104.792 M104.792-1.659H75.691c-4.418,0-8,3.582-8,8
					v9.029c0,4.418,3.582,8,8,8h1.616v13.289c0,4.418,3.582,8,8,8h9.868c4.418,0,8-3.582,8-8V23.37h1.616c4.418,0,8-3.582,8-8V6.341
					C112.792,1.923,109.21-1.659,104.792-1.659L104.792-1.659z"/>
			</g>
			<g>
				<path fill="#FCD901" d="M126.606,40.659c-1.7,0-3.214-1.074-3.775-2.679l-0.973-2.78h-3.332l-0.973,2.78
					c-0.562,1.604-2.076,2.679-3.775,2.679h-10.876c-1.283,0-2.488-0.615-3.24-1.654c-0.752-1.04-0.96-2.377-0.56-3.596
					l9.973-30.318c0.54-1.641,2.072-2.75,3.8-2.75h15.054c1.72,0,3.248,1.1,3.793,2.731l10.141,30.318
					c0.408,1.22,0.205,2.562-0.547,3.605c-0.751,1.044-1.959,1.663-3.246,1.663H126.606z"/>
				<path d="M127.929,6.341l10.141,30.318h-11.464l-1.911-5.459h-9.007l-1.911,5.459h-10.876l9.973-30.318H127.929 M116.087,25.069
					h8.356l-4.01-12.01L116.087,25.069 M127.929-1.659h-15.054c-3.455,0-6.52,2.218-7.6,5.5l-9.973,30.318
					c-0.802,2.438-0.386,5.111,1.119,7.19c1.505,2.079,3.915,3.31,6.481,3.31h10.876c2.572,0,4.932-1.229,6.415-3.219
					c1.482,1.989,3.842,3.219,6.414,3.219h11.464c2.573,0,4.989-1.237,6.492-3.326c1.503-2.088,1.911-4.771,1.095-7.212
					L135.516,3.803C134.425,0.54,131.37-1.659,127.929-1.659L127.929-1.659z"/>
			</g>
			<g>
				<path fill="#FCD901" d="M158.227,40.659c-1.089,0-2.131-0.444-2.885-1.229l-2.731-2.845v0.074c0,2.209-1.791,4-4,4h-10.96
					c-2.209,0-4-1.791-4-4V6.341c0-2.209,1.791-4,4-4h19.736c0.123,0,0.245,0.006,0.367,0.017c3.103,0.286,5.755,1.162,7.882,2.604
					c2.229,1.514,3.877,3.562,4.905,6.089c0.091,0.223,0.161,0.454,0.21,0.69c0.716,3.441,0.699,6.169-0.052,8.339
					c-0.453,1.31-1.112,2.497-1.969,3.553h1.464c2.209,0,4,1.791,4,4v9.027c0,2.209-1.791,4-4,4H158.227z"/>
				<path d="M157.387,6.341c2.436,0.225,4.437,0.869,6.005,1.932c1.567,1.064,2.715,2.492,3.443,4.283
					c0.56,2.688,0.588,4.76,0.084,6.215c-0.504,1.457-1.386,2.674-2.646,3.654c-1.26,0.979-3.065,1.75-5.417,2.309l2.268,2.898h9.07
					v9.027h-11.968l-9.616-10.016v10.016h-10.96V6.341H157.387 M148.61,19.485h7.643c0.406,0,0.847-0.15,1.323-0.451
					c0.476-0.301,0.728-1.061,0.756-2.279c-0.07-1.162-0.354-1.928-0.85-2.299c-0.497-0.371-0.914-0.557-1.25-0.557h-7.622V19.485
					 M157.387-1.659H137.65c-4.418,0-8,3.582-8,8v30.318c0,4.418,3.582,8,8,8h10.96c1.805,0,3.47-0.598,4.809-1.605
					c1.377,1.035,3.062,1.605,4.808,1.605h11.968c4.418,0,8-3.582,8-8v-9.027c0-2.783-1.421-5.234-3.577-6.667
					c0.86-2.782,0.876-6.073,0.05-10.04c-0.098-0.473-0.239-0.935-0.421-1.382c-1.33-3.271-3.47-5.926-6.36-7.889
					c-2.699-1.829-5.982-2.931-9.765-3.279C157.877-1.647,157.632-1.659,157.387-1.659L157.387-1.659z"/>
			</g>
			<g>
				<path fill="#FCD901" d="M212.082,40.659c-1.488,0-2.828-0.822-3.517-2.094c-0.687,1.267-2.024,2.094-3.517,2.094h-9.868
					c-1.76,0-3.313-1.15-3.826-2.834l-9.238-30.318c-0.37-1.213-0.143-2.528,0.612-3.547s1.947-1.619,3.214-1.619h9.868
					c1.743,0,3.286,1.129,3.813,2.79l0.075,0.236l0.025-0.089c0.478-1.735,2.056-2.938,3.856-2.938h9.07
					c1.486,0,2.827,0.82,3.517,2.094c0.685-1.265,2.021-2.094,3.517-2.094h9.868c1.232,0,2.396,0.568,3.154,1.539
					c0.758,0.972,1.026,2.238,0.726,3.434l-7.601,30.318c-0.446,1.779-2.045,3.027-3.88,3.027H212.082z"/>
				<path d="M229.55,6.341h0.005 M229.55,6.341l-7.601,30.318h-9.868l-3.842-12.85l-3.191,12.85h-9.868l-9.238-30.318h9.868
					l4.157,13.102l3.611-13.102h9.07l4.22,13.102l2.813-13.102H229.55 M229.555-1.659h-0.005h-9.868
					c-1.253,0-2.449,0.291-3.517,0.814c-1.071-0.525-2.268-0.814-3.517-0.814h-9.07c-1.396,0-2.725,0.361-3.884,1.006
					c-1.161-0.646-2.491-1.006-3.884-1.006h-9.868c-2.535,0-4.92,1.201-6.429,3.238s-1.963,4.669-1.224,7.094l9.239,30.318
					c1.026,3.367,4.132,5.668,7.652,5.668h9.868c1.251,0,2.448-0.29,3.517-0.814c1.07,0.524,2.267,0.814,3.517,0.814h9.868
					c3.669,0,6.868-2.496,7.76-6.055l7.537-30.064c0.2-0.699,0.306-1.437,0.306-2.199C237.553,1.923,233.974-1.659,229.555-1.659
					L229.555-1.659z"/>
			</g>
			<g>
				<path fill="#FCD901" d="M248.699,40.659c-1.7,0-3.214-1.074-3.775-2.679l-0.973-2.78h-3.332l-0.973,2.78
					c-0.562,1.604-2.076,2.679-3.775,2.679h-10.876c-1.283,0-2.488-0.615-3.24-1.654c-0.752-1.04-0.96-2.377-0.56-3.596
					l9.973-30.318c0.54-1.641,2.072-2.75,3.8-2.75h15.054c1.72,0,3.248,1.1,3.793,2.731l10.141,30.318
					c0.408,1.22,0.205,2.562-0.547,3.605c-0.751,1.044-1.959,1.663-3.246,1.663H248.699z"/>
				<path d="M250.021,6.341l10.141,30.318h-11.464l-1.911-5.459h-9.007l-1.911,5.459h-10.876l9.973-30.318H250.021 M238.18,25.069
					h8.356l-4.01-12.01L238.18,25.069 M250.021-1.659h-15.054c-3.455,0-6.52,2.218-7.6,5.5l-9.973,30.318
					c-0.802,2.438-0.386,5.111,1.119,7.19c1.504,2.079,3.915,3.31,6.48,3.31h10.876c2.572,0,4.932-1.229,6.414-3.219
					c1.483,1.989,3.842,3.219,6.415,3.219h11.464c2.573,0,4.989-1.237,6.492-3.326c1.503-2.088,1.911-4.771,1.095-7.212
					L257.608,3.803C256.517,0.54,253.462-1.659,250.021-1.659L250.021-1.659z"/>
			</g>
			<g>
				<path fill="#FCD901" d="M280.319,40.659c-1.089,0-2.131-0.444-2.885-1.229l-2.731-2.845v0.074c0,2.209-1.791,4-4,4h-10.96
					c-2.209,0-4-1.791-4-4V6.341c0-2.209,1.791-4,4-4h19.736c0.123,0,0.245,0.006,0.367,0.017c3.103,0.286,5.755,1.162,7.882,2.604
					c2.229,1.514,3.877,3.562,4.905,6.089c0.091,0.223,0.161,0.454,0.21,0.69c0.716,3.441,0.699,6.169-0.052,8.339
					c-0.453,1.31-1.112,2.497-1.969,3.553h1.464c2.209,0,4,1.791,4,4v9.027c0,2.209-1.791,4-4,4H280.319z"/>
				<path d="M279.479,6.341c2.436,0.225,4.437,0.869,6.005,1.932c1.567,1.064,2.715,2.492,3.443,4.283
					c0.56,2.688,0.588,4.76,0.084,6.215c-0.504,1.457-1.386,2.674-2.646,3.654c-1.26,0.979-3.065,1.75-5.417,2.309l2.268,2.898h9.07
					v9.027h-11.968l-9.616-10.016v10.016h-10.96V6.341H279.479 M270.703,19.485h7.643c0.406,0,0.847-0.15,1.323-0.451
					c0.476-0.301,0.728-1.061,0.756-2.279c-0.07-1.162-0.354-1.928-0.85-2.299c-0.497-0.371-0.914-0.557-1.25-0.557h-7.622V19.485
					 M279.479-1.659h-19.736c-4.418,0-8,3.582-8,8v30.318c0,4.418,3.582,8,8,8h10.96c1.805,0,3.47-0.598,4.809-1.605
					c1.377,1.035,3.062,1.605,4.808,1.605h11.968c4.418,0,8-3.582,8-8v-9.027c0-2.783-1.421-5.234-3.577-6.667
					c0.86-2.782,0.875-6.073,0.05-10.04c-0.098-0.473-0.239-0.935-0.421-1.382c-1.33-3.271-3.47-5.926-6.36-7.889
					c-2.699-1.829-5.982-2.931-9.765-3.279C279.969-1.647,279.724-1.659,279.479-1.659L279.479-1.659z"/>
			</g>
			<g>
				<path fill="#FCD901" d="M291.027,40.659c-2.209,0-4-1.791-4-4v-9.027c0-2.209,1.791-4,4-4h1.741
					c-3.431-4.223-4.771-8.388-3.988-12.426c1.093-5.634,5.034-8.865,10.813-8.865h16.545c2.209,0,4,1.791,4,4v9.029
					c0,2.209-1.791,4-4,4h-2.438c2.822,3.504,4.207,7.074,4.127,10.66c-0.127,5.682-3.779,9.536-10.02,10.574
					c-0.217,0.036-0.437,0.055-0.656,0.055H291.027z"/>
				<path d="M316.138,6.341v9.029h-7.391c-0.184-0.006-0.36-0.009-0.528-0.009c-3.116,0-3.472,0.997-1.068,2.989
					c4.535,3.977,6.761,7.84,6.677,11.59c-0.084,3.752-2.31,5.992-6.677,6.719h-16.125v-9.027h6.383
					c0.181,0.005,0.355,0.008,0.522,0.008c3.478,0,3.808-1.108,0.99-3.326c-4.871-4.479-6.943-8.594-6.215-12.346
					c0.728-3.75,3.023-5.627,6.887-5.627H316.138 M316.138-1.659h-16.545c-7.644,0-13.292,4.638-14.74,12.104
					c-0.692,3.564-0.175,7.129,1.539,10.667c-2.037,1.45-3.365,3.83-3.365,6.521v9.027c0,4.418,3.582,8,8,8h16.125
					c0.44,0,0.879-0.036,1.313-0.108c8.195-1.363,13.19-6.759,13.362-14.432c0.06-2.662-0.488-5.283-1.636-7.85
					c2.362-1.391,3.947-3.96,3.947-6.899V6.341C324.138,1.923,320.557-1.659,316.138-1.659L316.138-1.659z"/>
			</g>
		</g>
		<g>
			<path fill="#FCD901" d="M77.182,15.369h-7.391c-3.598-0.112-4.129,0.882-1.596,2.981c4.535,3.976,6.761,7.839,6.677,11.59
				s-2.31,5.991-6.677,6.719H52.07v-9.028h6.383c3.961,0.112,4.465-0.994,1.512-3.317c-4.871-4.479-6.943-8.595-6.215-12.346
				c0.728-3.751,3.023-5.627,6.887-5.627h16.545V15.369z"/>
			<path fill="#FCD901" d="M104.792,6.341v9.028h-9.616v21.29h-9.868v-21.29h-9.616V6.341H104.792z"/>
			<path fill="#FCD901" d="M102.902,36.659l9.973-30.318h15.054l10.141,30.318h-11.464l-1.911-5.459h-9.007l-1.911,5.459H102.902z
				 M120.434,13.06l-4.346,12.01h8.356L120.434,13.06z"/>
			<path fill="#FCD901" d="M137.65,36.659V6.341h19.736c2.436,0.224,4.437,0.868,6.005,1.932c1.567,1.063,2.715,2.491,3.443,4.283
				c0.56,2.688,0.588,4.759,0.084,6.215s-1.386,2.674-2.646,3.653s-3.065,1.75-5.417,2.31l2.268,2.897h9.07v9.028h-11.968
				l-9.616-10.016v10.016H137.65z M148.61,13.899v5.585h7.643c0.406,0,0.847-0.15,1.323-0.451c0.476-0.301,0.728-1.061,0.756-2.278
				c-0.07-1.162-0.354-1.928-0.85-2.299c-0.497-0.371-0.914-0.557-1.25-0.557H148.61z"/>
			<path fill="#FCD901" d="M208.239,23.81l-3.191,12.85h-9.868l-9.238-30.318h9.868l4.157,13.102l3.611-13.102h9.07l4.22,13.102
				l2.813-13.102h9.868l-7.601,30.318h-9.868L208.239,23.81z"/>
			<path fill="#FCD901" d="M224.994,36.659l9.973-30.318h15.054l10.141,30.318h-11.464l-1.911-5.459h-9.007l-1.911,5.459H224.994z
				 M242.526,13.06l-4.346,12.01h8.356L242.526,13.06z"/>
			<path fill="#FCD901" d="M259.743,36.659V6.341h19.736c2.436,0.224,4.437,0.868,6.005,1.932c1.567,1.063,2.715,2.491,3.443,4.283
				c0.56,2.688,0.588,4.759,0.084,6.215s-1.386,2.674-2.646,3.653s-3.065,1.75-5.417,2.31l2.268,2.897h9.07v9.028h-11.968
				l-9.616-10.016v10.016H259.743z M270.703,13.899v5.585h7.643c0.406,0,0.847-0.15,1.323-0.451
				c0.476-0.301,0.728-1.061,0.756-2.278c-0.07-1.162-0.354-1.928-0.85-2.299c-0.497-0.371-0.914-0.557-1.25-0.557H270.703z"/>
			<path fill="#FCD901" d="M316.138,15.369h-7.391c-3.598-0.112-4.129,0.882-1.596,2.981c4.535,3.976,6.761,7.839,6.677,11.59
				s-2.31,5.991-6.677,6.719h-16.125v-9.028h6.383c3.961,0.112,4.465-0.994,1.512-3.317c-4.871-4.479-6.943-8.595-6.215-12.346
				c0.728-3.751,3.023-5.627,6.887-5.627h16.545V15.369z"/>
		</g>
	</g>
	<g>
		<path fill="#FFFFFF" d="M173.979,134.528v31.494l-62.915,1.831c-9.034-0.245-17.005-1.538-23.914-3.882
			c-6.91-2.344-12.806-5.847-17.688-10.51c-4.883-4.663-8.569-10.364-11.06-17.103s-3.735-14.453-3.735-23.145
			c0-8.887,1.293-16.517,3.882-22.888c2.587-6.373,6.372-11.902,11.353-16.59S80.889,65.534,87.92,63.19s16.015-3.809,26.953-4.395
			c11.133,0.586,20.947,2.442,29.443,5.566c8.496,3.125,15.429,8.302,20.801,15.527c5.371,7.227,7.764,17.97,7.178,32.227
			c-1.172,6.445-3.479,12.061-6.921,16.846c-3.442,4.786-1.6,6.641,5.53,5.566H173.979z M92.534,114.606
			c0,6.787,1.525,12.696,4.578,17.725c3.051,5.029,9.069,7.544,18.054,7.544v-5.2c13.477,1.367,20.728-0.427,21.753-5.383
			s1.685-9.852,1.978-14.686c-0.293-6.689-1.93-12.561-4.907-17.615c-2.979-5.053-9.254-7.58-18.823-7.58
			C100.078,89.411,92.534,97.81,92.534,114.606z"/>
		<path fill="#FFFFFF" d="M209.136,60.261v62.549c-0.293,7.13,1.073,12.085,4.102,14.868c3.027,2.783,7.764,4.273,14.209,4.468
			c5.175-0.098,9.496-1.611,12.964-4.541c3.466-2.93,5.102-7.861,4.907-14.795V60.261h34.424v62.036
			c-0.146,8.789-1.6,15.809-4.358,21.058c-2.759,5.249-6.251,9.631-10.474,13.146c-4.224,3.516-9.521,6.251-15.894,8.203
			s-13.465,3.027-21.277,3.223c-6.495-0.146-13.099-1.038-19.812-2.674c-6.714-1.635-12.574-4.211-17.578-7.727
			c-5.006-3.516-8.862-8.031-11.572-13.55c-2.71-5.518-4.065-12.719-4.065-21.606V60.261H209.136z"/>
		<path fill="#FFFFFF" d="M283.403,60.261h34.424v105.762h-34.424V60.261z"/>
		<path fill="#FFFFFF" d="M323.687,60.261h96.68v31.494l-51.196,42.773h51.196v31.494h-96.68v-31.494l51.196-42.773h-51.196V60.261z
			"/>
		<path fill="#FFFFFF" d="M435.161,60.261h40.21l-5.859,66.577h-28.491L435.161,60.261z M438.896,137.824h32.666v28.198h-32.666
			V137.824z"/>
	</g>
	<rect x="318.82" y="19.632" width="20.479" height="24.953"/>
	<path fill="#FCD901" d="M56.862,36.661c2.49,0,4.508-2.018,4.514-4.506v-4.523H39.104v9.029H56.862z"/>
</g>
</svg>
