<?xml version="1.0" encoding="utf-8"?>
<!-- Generator: Adobe Illustrator 16.0.0, SVG Export Plug-In . SVG Version: 6.00 Build 0)  -->
<!DOCTYPE svg PUBLIC "-//W3C//DTD SVG 1.1//EN" "http://www.w3.org/Graphics/SVG/1.1/DTD/svg11.dtd">
<svg version="1.1" xmlns="http://www.w3.org/2000/svg" xmlns:xlink="http://www.w3.org/1999/xlink" x="0px" y="0px"
	 width="84.189px" height="84.188px" viewBox="0 0 84.189 84.188" enable-background="new 0 0 84.189 84.188" xml:space="preserve">
<g id="FreeVector.com_BG">
</g>
<g id="FreeVector.com_License">
</g>
<g id="Vector_Graphics">
	<g>
		<path fill="#FFFFFF" d="M74.688,13.32C74.688,6.782,65.674,0,59.135,0H24.971C18.428,0,9.414,6.782,9.414,13.32v4.849h65.273
			V13.32z"/>
		<path fill="#FFFFFF" d="M84.189,51.705c0-7.277-6.492-9.963-6.492-9.963s0-10.337,0-14.182c0-3.847-3.016-3.522-3.016-3.522
			v-2.919H40.875l0,0L9.537,21.141L9.51,24.038c0,0-3.016-0.324-3.016,3.522c0,3.845,0,14.182,0,14.182S0,44.428,0,51.705
			s9.217,14.167,9.217,14.167s-0.744,7.417,5.561,12.109c6.307,4.7,15.461,2.598,18.428-0.371c0,0,0-8.264,0-9.155
			c0-0.891,0.057-2.859,2.561-2.955c2.781-0.103,2.941,2.349,2.941,2.349s-0.068-3.81,3.389-3.81c3.455,0,3.385,3.81,3.385,3.81
			S45.59,65.5,48.029,65.5c2.506,0,2.957,2.041,2.957,2.955c0,0.918,0,9.155,0,9.155c2.967,2.969,12.119,5.071,18.428,0.371
			c6.309-4.692,5.563-12.109,5.563-12.109S84.189,58.982,84.189,51.705z M22.941,74.771c-2.529,0-4.574-2.049-4.574-4.571
			c0-2.526,2.045-4.576,4.574-4.576c2.527,0,4.58,2.05,4.58,4.576C27.521,72.723,25.469,74.771,22.941,74.771z M20.84,52.677
			c0,0,3.213-0.122,6.461-1.933v2.924C24.73,54.056,22.096,53.879,20.84,52.677z M36.018,50.104
			c-1.467,0.734-2.855,1.604-4.328,2.295c-0.428,0.204-0.91,0.39-1.42,0.563v-4.378c1.797-1.447,3.736-2.723,5.748-3.646V50.104z
			 M24.24,38.312c-4.08,2.226-6.984-1.111-7.729-3.768c-0.74-2.658-1.113-7.479-1.113-7.479h23.375
			C36.607,29.292,28.322,36.087,24.24,38.312z M44.986,48.751c-0.938-0.126-1.984-0.15-3.369-0.15c-0.936,0-1.805,0.133-2.629,0.347
			V43.86c1.113-0.29,2.242-0.45,3.369-0.45c0.922,0,1.795,0.114,2.629,0.307V48.751z M54.014,52.764
			c-1.143-0.39-2.311-0.922-3.492-1.661c-1.006-0.627-1.824-1.094-2.564-1.448v-4.879c1.971,0.943,3.693,2.214,5.254,3.27
			c0.238,0.163,0.514,0.338,0.803,0.513V52.764z M61.248,74.771c-2.525,0-4.576-2.049-4.576-4.571c0-2.526,2.051-4.576,4.576-4.576
			c2.527,0,4.578,2.05,4.578,4.576C65.826,72.723,63.775,74.771,61.248,74.771z M56.984,53.508v-3.284
			c2.826,1.476,5.873,2.827,6.43,2.827c0.834,0,1.021,1.204-2.32,0.926C59.754,53.866,58.383,53.75,56.984,53.508z M67.682,34.544
			c-0.742,2.656-3.65,5.993-7.729,3.768c-4.082-2.225-12.371-9.02-14.533-11.246h23.373C68.793,27.065,68.422,31.886,67.682,34.544z
			"/>
		<path fill="#FFFFFF" d="M35.904,66.115c-1.229,0-2.225,0.996-2.225,2.225v10.381c0,1.229,0.996,2.224,2.225,2.224
			c1.23,0,2.229-0.995,2.229-2.224V68.34C38.133,67.111,37.135,66.115,35.904,66.115z"/>
		<path fill="#FFFFFF" d="M48.15,66.115c-1.232,0-2.229,0.996-2.229,2.225v10.381c0,1.229,0.996,2.224,2.229,2.224
			c1.229,0,2.225-0.995,2.225-2.224V68.34C50.375,67.111,49.379,66.115,48.15,66.115z"/>
		<path fill="#FFFFFF" d="M42.072,64.678c-1.537,0-2.781,1.246-2.781,2.779v13.956c0,1.533,1.244,2.775,2.781,2.775
			c1.535,0,2.781-1.242,2.781-2.775V67.457C44.854,65.924,43.607,64.678,42.072,64.678z"/>
	</g>
</g>
</svg>
