<?xml version="1.0" encoding="utf-8"?>
<!-- Generator: Adobe Illustrator 16.0.0, SVG Export Plug-In . SVG Version: 6.00 Build 0)  -->
<!DOCTYPE svg PUBLIC "-//W3C//DTD SVG 1.1//EN" "http://www.w3.org/Graphics/SVG/1.1/DTD/svg11.dtd">
<svg version="1.1" xmlns="http://www.w3.org/2000/svg" xmlns:xlink="http://www.w3.org/1999/xlink" x="0px" y="0px"
	 width="773.25px" height="87.508px" viewBox="0 0 773.25 87.508" enable-background="new 0 0 773.25 87.508" xml:space="preserve">
<g id="FreeVector.com_BG">
</g>
<g id="FreeVector.com_License">
</g>
<g id="Vector_Graphics">
	<g>
		<g>
			<path fill-rule="evenodd" clip-rule="evenodd" fill="#FFFFFF" d="M95.478,68.148c0.24-10.814-6.171-21.945-19.24-33.404
				c-7.298-6.051-5.769-8.916,4.597-8.587H97.88h10.426h17.281v61.351h28.441V26.157h27.715V0.139h-73.438H97.88H54.453
				c-11.132,0-17.746,5.404-19.844,16.213c-2.098,10.813,3.871,22.67,17.907,35.58c8.514,6.695,7.063,9.877-4.357,9.559H0v26.018
				h76.237C88.824,85.412,95.231,78.954,95.478,68.148z"/>
			<path fill-rule="evenodd" clip-rule="evenodd" fill="#FFFFFF" d="M344.032,61.49l-6.529-8.354
				c6.773-1.611,11.98-3.829,15.605-6.654c3.633-2.82,6.174-6.33,7.625-10.526c1.455-4.192,1.371-10.165-0.238-17.911
				c-2.1-5.164-5.406-9.275-9.93-12.341c-4.514-3.067-10.279-4.922-17.301-5.565H276.39v83.502L248.454,0.139h-43.379
				l-28.742,87.369h31.34l5.514-15.732h25.955l5.502,15.732h31.746h1.295h30.289V58.646l27.711,28.861h51.037V61.49H344.032z
				 M214.327,54.109l12.529-34.612l11.557,34.612H214.327z M333.81,36.711c-1.369,0.869-2.641,1.301-3.809,1.301h-22.027V21.92
				h21.963c0.965,0,2.172,0.535,3.602,1.601c1.428,1.073,2.25,3.278,2.453,6.624C335.909,33.657,335.179,35.845,333.81,36.711z"/>
		</g>
		<g>
			<polygon fill-rule="evenodd" clip-rule="evenodd" fill="#FFFFFF" points="483.953,0.133 475.847,37.891 463.681,0.133 
				437.543,0.133 427.138,37.891 415.158,0.133 386.722,0.133 413.344,87.508 441.784,87.508 450.979,50.473 462.047,87.508 
				490.49,87.508 512.389,0.133 			"/>
			<path fill-rule="evenodd" clip-rule="evenodd" fill="#FFFFFF" d="M694.391,16.35c-2.096,10.812,3.877,22.671,17.914,35.576
				c8.508,6.697,7.053,9.885-4.361,9.566h-40.9l-6.541-8.354c6.781-1.611,11.988-3.834,15.619-6.654
				c3.629-2.827,6.168-6.333,7.621-10.526c1.449-4.2,1.375-10.168-0.244-17.913c-2.096-5.16-5.4-9.279-9.922-12.342
				c-4.514-3.069-10.283-4.92-17.307-5.57h-56.875V83.64L571.463,0.133h-43.381l-28.744,87.375h31.348l5.502-15.734h25.961
				l5.504,15.734h31.742h1.295h30.291V58.645l27.717,28.863h1.086h53.971h22.266c12.588-2.098,19-8.553,19.238-19.365
				c0.246-10.809-6.17-21.944-19.238-33.396c-7.295-6.054-5.762-8.917,4.602-8.595l32.629-0.137V0l-59.012,0.133
				C703.102,0.133,696.49,5.539,694.391,16.35z M537.336,54.107l12.531-34.609l11.549,34.609H537.336z M656.816,36.711
				c-1.369,0.866-2.641,1.299-3.811,1.299H630.98V21.915h21.963c0.973,0,2.172,0.534,3.598,1.607
				c1.441,1.066,2.256,3.277,2.455,6.624C658.912,33.657,658.191,35.846,656.816,36.711z"/>
		</g>
	</g>
</g>
</svg>
