<?xml version="1.0" encoding="utf-8"?>
<!-- Generator: Adobe Illustrator 16.0.0, SVG Export Plug-In . SVG Version: 6.00 Build 0)  -->
<!DOCTYPE svg PUBLIC "-//W3C//DTD SVG 1.1//EN" "http://www.w3.org/Graphics/SVG/1.1/DTD/svg11.dtd">
<svg version="1.1" xmlns="http://www.w3.org/2000/svg" xmlns:xlink="http://www.w3.org/1999/xlink" x="0px" y="0px"
	 width="386.722px" height="185.242px" viewBox="0 0 386.722 185.242" enable-background="new 0 0 386.722 185.242"
	 xml:space="preserve">
<g id="FreeVector.com_BG">
</g>
<g id="FreeVector.com_License">
</g>
<g id="Vector_Graphics">
	<g>
		<path fill-rule="evenodd" clip-rule="evenodd" d="M95.478,68.01c0.24-10.814-6.171-21.945-19.24-33.404
			c-7.298-6.051-5.769-8.916,4.597-8.587H97.88h10.426h17.281v61.351h28.441V26.019h27.715V0h-73.438H97.88H54.453
			C43.321,0,36.707,5.404,34.609,16.213c-2.098,10.813,3.871,22.67,17.907,35.58c8.514,6.695,7.063,9.877-4.357,9.559H0v26.018
			h76.237C88.824,85.273,95.231,78.815,95.478,68.01z"/>
		<path fill-rule="evenodd" clip-rule="evenodd" d="M344.032,61.352l-6.529-8.354c6.773-1.611,11.98-3.829,15.605-6.654
			c3.633-2.82,6.174-6.33,7.625-10.526c1.455-4.192,1.371-10.165-0.238-17.911c-2.1-5.164-5.406-9.275-9.93-12.341
			C346.052,2.498,340.286,0.644,333.265,0H276.39v83.502L248.454,0h-43.379l-28.742,87.369h31.34l5.514-15.732h25.955l5.502,15.732
			h31.746h1.295h30.289V58.508l27.711,28.861h51.037V61.352H344.032z M214.327,53.971l12.529-34.612l11.557,34.612H214.327z
			 M333.81,36.572c-1.369,0.869-2.641,1.301-3.809,1.301h-22.027V21.781h21.963c0.965,0,2.172,0.535,3.602,1.601
			c1.428,1.073,2.25,3.278,2.453,6.624C335.909,33.519,335.179,35.706,333.81,36.572z"/>
		<polygon fill-rule="evenodd" clip-rule="evenodd" points="97.231,97.867 89.125,135.625 76.959,97.867 50.821,97.867 
			40.416,135.625 28.437,97.867 0,97.867 26.622,185.242 55.063,185.242 64.257,148.207 75.325,185.242 103.769,185.242 
			125.667,97.867 		"/>
		<path fill-rule="evenodd" clip-rule="evenodd" d="M307.669,114.084c-2.096,10.812,3.877,22.671,17.914,35.576
			c8.508,6.697,7.053,9.885-4.361,9.566h-40.9l-6.541-8.354c6.781-1.611,11.988-3.834,15.619-6.654
			c3.629-2.827,6.168-6.333,7.621-10.526c1.449-4.2,1.375-10.168-0.244-17.913c-2.096-5.16-5.4-9.279-9.922-12.342
			c-4.514-3.069-10.283-4.92-17.307-5.57h-56.875v83.507l-27.932-83.507H141.36l-28.744,87.375h31.348l5.502-15.734h25.961
			l5.504,15.734h31.742h1.295h30.291v-28.863l27.717,28.863h1.086h53.971h22.266c12.588-2.098,19-8.553,19.238-19.365
			c0.246-10.809-6.17-21.944-19.238-33.396c-7.295-6.054-5.762-8.917,4.602-8.595l32.629-0.137V97.734l-59.012,0.133
			C316.38,97.867,309.769,103.273,307.669,114.084z M150.614,151.842l12.531-34.609l11.549,34.609H150.614z M270.095,134.445
			c-1.369,0.866-2.641,1.299-3.811,1.299h-22.025v-16.095h21.963c0.973,0,2.172,0.534,3.598,1.607
			c1.441,1.066,2.256,3.277,2.455,6.624C272.19,131.392,271.47,133.58,270.095,134.445z"/>
	</g>
</g>
</svg>
